<?xml version="1.0" encoding="iso-8859-1"?>
<!-- Generator: Adobe Illustrator 19.0.0, SVG Export Plug-In . SVG Version: 6.00 Build 0)  -->
<svg version="1.1" id="Capa_1" xmlns="http://www.w3.org/2000/svg" xmlns:xlink="http://www.w3.org/1999/xlink" x="0px" y="0px"
	 viewBox="0 0 512 512" style="enable-background:new 0 0 512 512;" xml:space="preserve">
<g>
	<g>
		<polygon points="512,260.333 512,230.333 431.323,230.333 431.323,275.333 384.333,275.333 384.333,411.667 431.833,411.667 
			431.833,482 401.833,482 401.833,441.667 110.167,441.667 110.167,482 80.167,482 80.167,411.667 123.667,411.667 
			123.667,275.333 80.678,275.333 80.678,230.333 0,230.333 0,260.333 18.917,260.333 18.917,482 0,482 0,512 512,512 512,482 
			493.083,482 493.083,260.333 		"/>
	</g>
</g>
<g>
	<g>
		<rect x="213.67" y="275.33" width="80.67" height="136.33"/>
	</g>
</g>
<g>
	<g>
		<rect x="153.67" y="275.33" width="30" height="136.33"/>
	</g>
</g>
<g>
	<g>
		<rect x="324.33" y="275.33" width="30" height="136.33"/>
	</g>
</g>
<g>
	<g>
		<polygon points="271,136.018 271,83.333 357.629,83.333 357.629,0 241,0 241,136.018 110.678,205.68 110.678,245.333 
			401.323,245.333 401.323,205.68 		"/>
	</g>
</g>
<g>
</g>
<g>
</g>
<g>
</g>
<g>
</g>
<g>
</g>
<g>
</g>
<g>
</g>
<g>
</g>
<g>
</g>
<g>
</g>
<g>
</g>
<g>
</g>
<g>
</g>
<g>
</g>
<g>
</g>
</svg>
