<?xml version="1.0" encoding="utf-8"?>
<!-- Generator: Adobe Illustrator 22.0.0, SVG Export Plug-In . SVG Version: 6.00 Build 0)  -->
<svg version="1.1" id="Calque_1" xmlns="http://www.w3.org/2000/svg" xmlns:xlink="http://www.w3.org/1999/xlink" x="0px" y="0px"
	 viewBox="0 0 841.9 595.3" style="enable-background:new 0 0 841.9 595.3;" xml:space="preserve">
<style type="text/css">
	.st0{display:none;fill:#FFFFFF;}
	.st1{fill:#AEAEAE;}
	.st2{fill:#003399;}
	.st3{fill:#FFCC00;}
	.st4{fill:#ED2939;}
	.st5{fill:#FFFFFF;}
	.st6{fill:#002395;}
</style>
<rect x="299" y="176.3" class="st0" width="245" height="244.9"/>
<g>
	<path class="st1" d="M309,312.3c6-10.6,16.4-15.1,27.1-18.8c22.8-7.9,46.5-10.6,70.4-11.7c26-1.2,51.8,0.4,77.3,5.5
		c13.7,2.7,27.3,6,39.1,14c4.2,2.9,7.4,7.3,11.1,11c0,33,0,66,0,99c-28.7,0-57.3,0-86,0c-0.1-2-0.3-4-0.3-6c0-24.6,0-49.3,0-73.9
		c0-1.9-0.2-3.8-0.4-5.8c-17.5,0-34.3,0-51.9,0c0,2.2,0,4,0,5.8c0,20,0,40,0,59.9c0,6.6-0.2,13.3-0.3,19.9c-28.6,0-57.2,0-86,0
		C309,378.3,309,345.3,309,312.3z M377.7,393.6c0-9,0-17.5,0-26.5c-5.7,0.5-11,0.9-16.3,1.3c0,8.8,0,16.8,0,25.2
		C366.9,393.6,372.1,393.6,377.7,393.6z M481.5,393.6c0-8.7,0-16.9,0-25.4c-5.6-0.4-10.8-0.7-16.3-1c0,9.1,0,17.6,0,26.4
		C470.7,393.6,476,393.6,481.5,393.6z M342.9,393.9c0-8.6,0-16.6,0-24.8c-4.7,0.4-9.1,0.6-13.3,1.3c-1.2,0.2-3.1,2-3.1,3.2
		c-0.3,5.8-0.3,11.6,0,17.4c0,1,1.6,2.6,2.5,2.7C333.6,394,338.2,393.9,342.9,393.9z M500.1,369.1c0,8.5,0,16.5,0,24.8
		c4.8,0,9.1,0.2,13.3-0.1c1.1-0.1,2.9-2,3-3.1c0.3-5.6,0.3-11.3,0-16.9c-0.1-1.2-1.9-3-3.1-3.3C509.2,369.7,504.8,369.6,500.1,369.1
		z M377.8,326.6c-5.8,0.6-11.1,1.2-16.3,1.8c0,7.6,0,14.6,0,21.4c5.6,0,10.9,0,16.3,0C377.8,342.1,377.8,334.8,377.8,326.6z
		 M465.3,325.8c0,8.1,0,15.5,0,23.3c5.6,0,11,0,16.4,0c0-7.1,0-14.2,0-21.6C476.3,326.9,471.1,326.4,465.3,325.8z M343.4,351.3
		c0-3.8,0-7,0-10.1c0-3.2,0-6.5,0-9.8c-16.5,1.8-17.8,3.3-17,18.1c0,0.3-0.1,0.8,0,1c0.9,0.9,1.9,2.5,2.8,2.4
		C333.7,352.6,338.3,351.9,343.4,351.3z M499.9,351.3c4.8,0.6,9.4,1.3,13.9,1.6c0.9,0.1,2.6-1.5,2.7-2.4c0.3-4.3,0.3-8.6,0-13
		c-0.1-1-1.1-2.5-2-2.8c-4.7-1.4-9.5-2.4-14.6-3.7C499.9,338.1,499.9,344.3,499.9,351.3z"/>
</g>
<g>
	<g>
		<path class="st2" d="M327,257.7c19.6-4,33.2,7.9,52.7,6.4c-2.6,4.5-4.2,6.1-7.6,8.5c-11.6,7.8-33.6,6.1-47.2,11
			C325,274.2,318.4,265.2,327,257.7z"/>
		<g>
			<g>
				<path id="t_360_" class="st3" d="M353.8,263c-0.7-0.3-1.1-0.5-1.8-0.8c0,0.2-0.1,0.3-0.1,0.5C352.6,262.8,353,262.9,353.8,263z"
					/>
				<path id="t_359_" class="st3" d="M353.8,263c-0.6,0-1,0-1.6-0.1c-0.2-0.3-0.3-0.4-0.4-0.7C352.5,262.6,352.9,262.7,353.8,263z"
					/>
				<path id="t_358_" class="st3" d="M352.8,263.8c-0.1-0.5-0.2-0.7-0.3-1.2c-0.4-0.1-0.5-0.1-0.9-0.2
					C352.1,263,352.3,263.3,352.8,263.8z"/>
				<path id="t_357_" class="st3" d="M352.8,263.8c-0.5-0.5-0.8-0.7-1.3-1.3c0.3-0.1,0.4-0.1,0.6-0.2
					C352.4,263,352.6,263.3,352.8,263.8z"/>
				<path id="t_356_" class="st3" d="M352.2,261.6c-0.4,0.2-0.5,0.4-0.8,0.7c0.4,0.2,0.5,0.3,0.8,0.6
					C352.2,262.3,352.2,262,352.2,261.6z"/>
				<path id="t_355_" class="st3" d="M352.2,261.6c0.1,0.4,0.2,0.7,0.3,1.2c-0.4-0.1-0.5-0.1-0.9-0.2
					C351.9,262.1,351.9,261.9,352.2,261.6z"/>
				<path id="t_354_" class="st3" d="M350.2,261.4c0.8,0.3,1.2,0.5,1.9,0.9c0,0.2-0.1,0.3-0.1,0.5
					C351.3,262.2,351,261.9,350.2,261.4z"/>
				<path id="t_353_" class="st3" d="M350.2,261.4c0.6,0.5,0.9,0.8,1.4,1.3c0.3-0.1,0.4-0.1,0.6-0.2
					C351.5,262.1,351.1,261.8,350.2,261.4z"/>
				<path id="t_352_" class="st3" d="M350.7,262.9c0.3-0.3,0.5-0.5,0.8-0.8c0.3,0.2,0.5,0.3,0.8,0.6
					C351.7,262.8,351.4,262.8,350.7,262.9z"/>
				<path id="t_351_" class="st3" d="M350.7,262.9c0.7,0,1,0,1.6,0c-0.2-0.3-0.3-0.4-0.4-0.7C351.4,262.5,351.2,262.6,350.7,262.9z"
					/>
			</g>
			<g>
				<path id="t_350_" class="st3" d="M349.5,273.4c-0.3,0.3-0.5,0.5-0.8,0.8c0.3,0.1,0.5,0.1,0.8,0.2
					C349.5,274,349.5,273.8,349.5,273.4z"/>
				<path id="t_349_" class="st3" d="M349.5,273.4c0.1,0.4,0.2,0.5,0.3,0.9c-0.4,0-0.5,0-0.9,0.1C349.2,274,349.3,273.8,349.5,273.4
					z"/>
				<path id="t_348_" class="st3" d="M351.1,274.1c-0.7-0.1-1.1-0.1-1.8-0.2c0,0.2-0.1,0.3-0.1,0.4
					C349.9,274.3,350.3,274.2,351.1,274.1z"/>
				<path id="t_347_" class="st3" d="M351.1,274.1c-0.6,0.1-1,0.2-1.6,0.4c-0.2-0.2-0.3-0.2-0.4-0.4
					C349.8,274.1,350.2,274.1,351.1,274.1z"/>
				<path id="t_346_" class="st3" d="M350.1,275c-0.1-0.3-0.2-0.5-0.3-0.8c-0.4,0-0.5,0-0.9,0.1C349.4,274.6,349.6,274.7,350.1,275z
					"/>
				<path id="t_345_" class="st3" d="M350.1,275c-0.5-0.2-0.8-0.3-1.3-0.6c0.2-0.1,0.4-0.2,0.6-0.3
					C349.7,274.5,349.9,274.7,350.1,275z"/>
				<path id="t_344_" class="st3" d="M347.6,273.9c0.7,0,1.1,0,1.8,0.1c0,0.2-0.1,0.3-0.1,0.4C348.6,274.2,348.3,274.1,347.6,273.9z
					"/>
				<path id="t_343_" class="st3" d="M347.6,273.9c0.5,0.2,0.8,0.3,1.3,0.6c0.2-0.1,0.4-0.2,0.6-0.3
					C348.8,274.1,348.4,274,347.6,273.9z"/>
				<path id="t_342_" class="st3" d="M348,275c0.3-0.3,0.5-0.5,0.8-0.8c0.3,0.1,0.5,0.1,0.8,0.2C349,274.5,348.7,274.7,348,275z"/>
				<path id="t_341_" class="st3" d="M348,275c0.6-0.2,1-0.3,1.6-0.5c-0.2-0.2-0.3-0.2-0.4-0.4C348.7,274.4,348.5,274.6,348,275z"/>
			</g>
			<g>
				<path id="t_340_" class="st3" d="M339.5,266.3c-0.3,0.5-0.4,0.8-0.7,1.3c0.4,0.1,0.5,0.1,0.9,0.2
					C339.6,267.2,339.5,266.9,339.5,266.3z"/>
				<path id="t_339_" class="st3" d="M339.5,266.3c0.2,0.5,0.3,0.8,0.5,1.3c-0.4,0.1-0.6,0.2-0.9,0.3
					C339.2,267.2,339.3,266.9,339.5,266.3z"/>
				<path id="t_338_" class="st3" d="M341.2,267.2c-0.8,0-1.1,0-1.9,0.1c0,0.3,0,0.4-0.1,0.7C340,267.6,340.4,267.5,341.2,267.2z"/>
				<path id="t_337_" class="st3" d="M341.2,267.2c-0.7,0.3-1,0.5-1.6,0.8c-0.2-0.2-0.3-0.3-0.5-0.5
					C339.9,267.4,340.3,267.3,341.2,267.2z"/>
				<path id="t_336_" class="st3" d="M340.3,268.7c-0.2-0.5-0.3-0.7-0.4-1.2c-0.4,0.1-0.6,0.2-0.9,0.3
					C339.5,268.1,339.8,268.3,340.3,268.7z"/>
				<path id="t_335_" class="st3" d="M340.3,268.7c-0.6-0.3-0.9-0.4-1.4-0.7c0.2-0.2,0.4-0.4,0.6-0.6
					C339.8,267.9,340,268.2,340.3,268.7z"/>
				<path id="t_334_" class="st3" d="M337.5,267.4c0.8-0.1,1.1-0.1,1.9-0.1c0,0.3,0,0.4-0.1,0.7
					C338.7,267.7,338.3,267.6,337.5,267.4z"/>
				<path id="t_333_" class="st3" d="M337.5,267.4c0.6,0.3,0.9,0.4,1.5,0.7c0.2-0.2,0.4-0.4,0.6-0.6
					C338.8,267.4,338.4,267.4,337.5,267.4z"/>
				<path id="t_332_" class="st3" d="M338.1,268.9c0.3-0.6,0.4-0.8,0.7-1.4c0.4,0.1,0.5,0.1,0.9,0.2
					C339.1,268.1,338.7,268.4,338.1,268.9z"/>
				<path id="t_331_" class="st3" d="M338.1,268.9c0.6-0.4,1-0.6,1.6-0.9c-0.2-0.2-0.3-0.3-0.5-0.5
					C338.8,268,338.5,268.3,338.1,268.9z"/>
			</g>
			<g>
				<path id="t_330_" class="st3" d="M344.7,262.1c0.7-0.2,1-0.3,1.7-0.4c-0.2-0.3-0.3-0.4-0.5-0.7
					C345.4,261.5,345.2,261.7,344.7,262.1z"/>
				<path id="t_329_" class="st3" d="M344.7,262.1c0.3-0.4,0.5-0.7,0.8-1.1c0.4,0.2,0.5,0.3,0.9,0.4
					C345.7,261.7,345.4,261.8,344.7,262.1z"/>
				<path id="t_328_" class="st3" d="M344.2,260.5c0.6,0.4,0.9,0.7,1.5,1.1c0.3-0.2,0.4-0.2,0.7-0.4
					C345.5,261,345.1,260.8,344.2,260.5z"/>
				<path id="t_327_" class="st3" d="M344.2,260.5c0.8,0.2,1.2,0.3,2,0.5c0,0.3-0.1,0.4-0.1,0.6C345.3,261.2,345,261,344.2,260.5z"
					/>
				<path id="t_326_" class="st3" d="M346.2,260.1c-0.3,0.4-0.5,0.6-0.8,1c0.4,0.2,0.5,0.3,0.9,0.4
					C346.3,261,346.3,260.7,346.2,260.1z"/>
				<path id="t_325_" class="st3" d="M346.2,260.1c0.2,0.5,0.2,0.8,0.4,1.4c-0.4,0-0.6,0-1,0C345.9,260.9,346,260.6,346.2,260.1z"/>
				<path id="t_324_" class="st3" d="M347,262.6c-0.6-0.4-0.9-0.7-1.5-1.1c0.3-0.2,0.4-0.2,0.7-0.4
					C346.5,261.8,346.7,262.1,347,262.6z"/>
				<path id="t_323_" class="st3" d="M347,262.6c-0.2-0.5-0.2-0.8-0.4-1.3c-0.4,0-0.6,0-1,0C346.2,261.8,346.4,262.1,347,262.6z"/>
				<path id="t_322_" class="st3" d="M347.9,261.5c-0.7,0.1-1,0.1-1.7,0.3c-0.2-0.3-0.3-0.4-0.5-0.7
					C346.6,261.2,347.1,261.3,347.9,261.5z"/>
				<path id="t_321_" class="st3" d="M347.9,261.5c-0.8-0.2-1.2-0.4-2-0.6c0,0.3-0.1,0.4-0.1,0.6
					C346.7,261.5,347.1,261.5,347.9,261.5z"/>
			</g>
			<g>
				<path id="t_320_" class="st3" d="M340.1,264.6c0.7-0.3,1-0.5,1.7-0.7c-0.2-0.2-0.3-0.4-0.5-0.6
					C340.8,263.8,340.5,264.1,340.1,264.6z"/>
				<path id="t_319_" class="st3" d="M340.1,264.6c0.3-0.5,0.4-0.8,0.7-1.3c0.4,0.1,0.5,0.2,0.9,0.3
					C341.1,264,340.7,264.2,340.1,264.6z"/>
				<path id="t_318_" class="st3" d="M339.5,263.1c0.6,0.3,0.9,0.5,1.5,0.9c0.3-0.2,0.4-0.3,0.6-0.5
					C340.8,263.3,340.4,263.2,339.5,263.1z"/>
				<path id="t_317_" class="st3" d="M339.5,263.1c0.8,0,1.2,0,2,0.1c0,0.3,0,0.4-0.1,0.7C340.7,263.5,340.3,263.4,339.5,263.1z"/>
				<path id="t_316_" class="st3" d="M341.5,262.2c-0.3,0.5-0.5,0.8-0.8,1.3c0.4,0.1,0.5,0.2,0.9,0.3
					C341.6,263.1,341.6,262.8,341.5,262.2z"/>
				<path id="t_315_" class="st3" d="M341.5,262.2c0.2,0.5,0.3,0.8,0.4,1.3c-0.4,0.1-0.6,0.1-1,0.1
					C341.2,263.1,341.3,262.8,341.5,262.2z"/>
				<path id="t_314_" class="st3" d="M342.3,264.7c-0.6-0.4-0.9-0.5-1.5-0.9c0.3-0.2,0.4-0.3,0.6-0.5
					C341.8,263.9,342,264.2,342.3,264.7z"/>
				<path id="t_313_" class="st3" d="M342.3,264.7c-0.2-0.5-0.3-0.8-0.4-1.3c-0.4,0.1-0.6,0.1-1,0.1
					C341.5,264,341.8,264.3,342.3,264.7z"/>
				<path id="t_312_" class="st3" d="M343.2,263.3c-0.7,0.2-1,0.4-1.7,0.6c-0.2-0.2-0.3-0.4-0.5-0.6
					C341.9,263.3,342.4,263.3,343.2,263.3z"/>
				<path id="t_311_" class="st3" d="M343.2,263.3c-0.8-0.1-1.2-0.1-1.9-0.2c0,0.3,0,0.4-0.1,0.7C342,263.6,342.4,263.5,343.2,263.3
					z"/>
			</g>
			<g>
				<path id="t_310_" class="st3" d="M339.1,272.8c0.6-0.4,0.9-0.6,1.6-1c-0.2-0.2-0.3-0.3-0.5-0.5
					C339.7,271.9,339.5,272.2,339.1,272.8z"/>
				<path id="t_309_" class="st3" d="M339.1,272.8c0.3-0.5,0.4-0.8,0.7-1.3c0.3,0,0.5,0.1,0.9,0.1C340,272,339.7,272.3,339.1,272.8z
					"/>
				<path id="t_308_" class="st3" d="M338.6,271.4c0.6,0.2,0.9,0.3,1.4,0.6c0.2-0.2,0.4-0.4,0.6-0.6
					C339.8,271.4,339.4,271.4,338.6,271.4z"/>
				<path id="t_307_" class="st3" d="M338.6,271.4c0.7-0.1,1.1-0.1,1.9-0.2c0,0.3,0,0.4-0.1,0.6
					C339.6,271.7,339.3,271.6,338.6,271.4z"/>
				<path id="t_306_" class="st3" d="M340.4,270.3c-0.3,0.5-0.4,0.8-0.7,1.3c0.3,0,0.5,0.1,0.9,0.1
					C340.5,271.1,340.5,270.9,340.4,270.3z"/>
				<path id="t_305_" class="st3" d="M340.4,270.3c0.2,0.5,0.3,0.7,0.4,1.2c-0.4,0.1-0.5,0.2-0.9,0.3
					C340.1,271.2,340.2,270.9,340.4,270.3z"/>
				<path id="t_304_" class="st3" d="M341.2,272.5c-0.6-0.2-0.8-0.3-1.4-0.6c0.2-0.2,0.4-0.4,0.6-0.6
					C340.8,271.8,340.9,272,341.2,272.5z"/>
				<path id="t_303_" class="st3" d="M341.2,272.5c-0.2-0.4-0.2-0.7-0.4-1.1c-0.4,0.1-0.5,0.2-0.9,0.3
					C340.5,272,340.7,272.2,341.2,272.5z"/>
				<path id="t_302_" class="st3" d="M342.1,271c-0.6,0.3-1,0.5-1.6,0.9c-0.2-0.2-0.3-0.3-0.5-0.5
					C340.8,271.3,341.3,271.2,342.1,271z"/>
				<path id="t_301_" class="st3" d="M342.1,271c-0.7,0.1-1.1,0.1-1.8,0.2c0,0.3,0,0.4-0.1,0.6C340.9,271.5,341.3,271.3,342.1,271z"
					/>
			</g>
			<g>
				<path id="t_300_" class="st3" d="M342.7,274.8c0.6-0.4,0.9-0.5,1.6-0.9c-0.2-0.2-0.3-0.2-0.5-0.4
					C343.4,274.1,343.2,274.3,342.7,274.8z"/>
				<path id="t_299_" class="st3" d="M342.7,274.8c0.3-0.5,0.4-0.7,0.7-1.1c0.3,0,0.5,0,0.8,0.1
					C343.6,274.1,343.3,274.4,342.7,274.8z"/>
				<path id="t_298_" class="st3" d="M342.3,273.6c0.5,0.2,0.8,0.3,1.4,0.5c0.2-0.2,0.4-0.3,0.6-0.5
					C343.4,273.6,343,273.6,342.3,273.6z"/>
				<path id="t_297_" class="st3" d="M342.3,273.6c0.7-0.1,1.1-0.1,1.8-0.2c0,0.2-0.1,0.3-0.1,0.6
					C343.3,273.8,343,273.8,342.3,273.6z"/>
				<path id="t_296_" class="st3" d="M344.1,272.6c-0.3,0.4-0.4,0.7-0.7,1.1c0.3,0,0.5,0,0.8,0.1
					C344.2,273.4,344.2,273.1,344.1,272.6z"/>
				<path id="t_295_" class="st3" d="M344.1,272.6c0.2,0.4,0.2,0.6,0.4,1c-0.4,0.1-0.5,0.2-0.9,0.3
					C343.8,273.4,343.9,273.2,344.1,272.6z"/>
				<path id="t_294_" class="st3" d="M344.8,274.5c-0.5-0.2-0.8-0.3-1.3-0.4c0.2-0.2,0.4-0.3,0.6-0.5
					C344.4,273.9,344.5,274.1,344.8,274.5z"/>
				<path id="t_293_" class="st3" d="M344.8,274.5c-0.1-0.4-0.2-0.6-0.4-1c-0.4,0.1-0.5,0.2-0.9,0.3
					C344.1,274.1,344.3,274.2,344.8,274.5z"/>
				<path id="t_292_" class="st3" d="M345.7,273.3c-0.6,0.3-1,0.4-1.6,0.8c-0.2-0.2-0.3-0.2-0.5-0.4
					C344.5,273.5,344.9,273.4,345.7,273.3z"/>
				<path id="t_291_" class="st3" d="M345.7,273.3c-0.7,0.1-1.1,0.1-1.8,0.2c0,0.2-0.1,0.3-0.1,0.6
					C344.6,273.7,344.9,273.5,345.7,273.3z"/>
			</g>
			<g>
				<path id="t_290_" class="st3" d="M359.6,269.2c0.7-0.1,1-0.1,1.7-0.1c-0.2-0.2-0.3-0.3-0.5-0.4
					C360.4,268.8,360.1,269,359.6,269.2z"/>
				<path id="t_289_" class="st3" d="M359.6,269.2c0.3-0.3,0.5-0.4,0.8-0.6c0.3,0.1,0.5,0.2,0.9,0.3
					C360.6,269,360.3,269.1,359.6,269.2z"/>
				<path id="t_288_" class="st3" d="M359.2,268.1c0.6,0.4,0.8,0.5,1.4,0.8c0.3-0.1,0.4-0.1,0.6-0.2
					C360.4,268.5,360,268.4,359.2,268.1z"/>
				<path id="t_287_" class="st3" d="M359.2,268.1c0.8,0.2,1.1,0.3,1.9,0.5c0,0.2-0.1,0.2-0.1,0.4
					C360.3,268.6,359.9,268.5,359.2,268.1z"/>
				<path id="t_286_" class="st3" d="M361.2,268c-0.3,0.3-0.5,0.4-0.8,0.6c0.3,0.1,0.5,0.2,0.9,0.3
					C361.2,268.6,361.2,268.4,361.2,268z"/>
				<path id="t_285_" class="st3" d="M361.2,268c0.1,0.4,0.2,0.5,0.4,0.9c-0.4,0-0.6,0-0.9-0.1C360.8,268.5,360.9,268.3,361.2,268z"
					/>
				<path id="t_284_" class="st3" d="M361.9,269.6c-0.6-0.3-0.8-0.4-1.4-0.7c0.3-0.1,0.4-0.1,0.6-0.2
					C361.4,269.1,361.6,269.3,361.9,269.6z"/>
				<path id="t_283_" class="st3" d="M361.9,269.6c-0.2-0.3-0.2-0.5-0.4-0.8c-0.4,0-0.6,0-0.9-0.1
					C361.1,269.1,361.3,269.3,361.9,269.6z"/>
				<path id="t_282_" class="st3" d="M362.8,268.9c-0.7,0.1-1,0.1-1.7,0.2c-0.2-0.2-0.3-0.3-0.5-0.4
					C361.5,268.8,362,268.8,362.8,268.9z"/>
				<path id="t_281_" class="st3" d="M362.8,268.9c-0.8-0.1-1.2-0.2-1.9-0.4c0,0.2-0.1,0.2-0.1,0.4
					C361.6,268.9,362,268.9,362.8,268.9z"/>
			</g>
			<g>
				<path id="t_280_" class="st3" d="M356.1,266.1c0.7,0,1,0,1.6,0c-0.2-0.2-0.3-0.3-0.5-0.6C356.8,265.8,356.5,265.9,356.1,266.1z"
					/>
				<path id="t_279_" class="st3" d="M356.1,266.1c0.3-0.3,0.5-0.4,0.8-0.7c0.3,0.2,0.5,0.3,0.9,0.5
					C357.1,266,356.7,266,356.1,266.1z"/>
				<path id="t_278_" class="st3" d="M355.7,264.8c0.5,0.5,0.8,0.7,1.4,1.1c0.3-0.1,0.4-0.1,0.6-0.2
					C356.9,265.4,356.5,265.2,355.7,264.8z"/>
				<path id="t_277_" class="st3" d="M355.7,264.8c0.7,0.3,1.1,0.4,1.9,0.7c0,0.2-0.1,0.3-0.1,0.4
					C356.7,265.5,356.3,265.3,355.7,264.8z"/>
				<path id="t_276_" class="st3" d="M357.6,264.9c-0.3,0.3-0.5,0.4-0.8,0.7c0.3,0.2,0.5,0.3,0.9,0.5
					C357.6,265.5,357.6,265.3,357.6,264.9z"/>
				<path id="t_275_" class="st3" d="M357.6,264.9c0.1,0.4,0.2,0.6,0.4,1.1c-0.4-0.1-0.6-0.1-0.9-0.2
					C357.2,265.4,357.3,265.2,357.6,264.9z"/>
				<path id="t_274_" class="st3" d="M358.3,266.8c-0.6-0.4-0.8-0.6-1.4-1c0.3-0.1,0.4-0.1,0.6-0.2
					C357.8,266.1,358,266.4,358.3,266.8z"/>
				<path id="t_273_" class="st3" d="M358.3,266.8c-0.1-0.4-0.2-0.6-0.4-1c-0.4-0.1-0.6-0.1-0.9-0.2
					C357.5,266.1,357.7,266.4,358.3,266.8z"/>
				<path id="t_272_" class="st3" d="M359.2,266.1c-0.7,0-1,0-1.6,0c-0.2-0.2-0.3-0.3-0.5-0.6C357.9,265.8,358.4,265.9,359.2,266.1z
					"/>
				<path id="t_271_" class="st3" d="M359.2,266.1c-0.8-0.2-1.1-0.4-1.9-0.6c0,0.2-0.1,0.3-0.1,0.5C358,266,358.4,266,359.2,266.1z"
					/>
			</g>
			<g>
				<path id="t_270_" class="st3" d="M360.5,271.7c0.7-0.1,1-0.2,1.7-0.3c-0.2-0.1-0.3-0.2-0.5-0.3
					C361.2,271.4,361,271.5,360.5,271.7z"/>
				<path id="t_269_" class="st3" d="M360.5,271.7c0.3-0.2,0.5-0.4,0.8-0.6c0.4,0.1,0.5,0.1,0.9,0.2
					C361.5,271.5,361.2,271.6,360.5,271.7z"/>
				<path id="t_268_" class="st3" d="M360.1,270.8c0.6,0.3,0.8,0.4,1.4,0.6c0.3-0.1,0.4-0.1,0.7-0.2
					C361.3,271.1,360.9,271,360.1,270.8z"/>
				<path id="t_267_" class="st3" d="M360.1,270.8c0.8,0.1,1.1,0.2,1.9,0.2c0,0.1-0.1,0.2-0.1,0.4
					C361.2,271.2,360.8,271.1,360.1,270.8z"/>
				<path id="t_266_" class="st3" d="M362.1,270.6c-0.3,0.2-0.5,0.4-0.8,0.6c0.4,0.1,0.5,0.1,0.9,0.2
					C362.1,271,362.1,270.9,362.1,270.6z"/>
				<path id="t_265_" class="st3" d="M362.1,270.6c0.1,0.3,0.2,0.4,0.4,0.7c-0.4,0-0.6,0-1,0C361.7,271,361.8,270.9,362.1,270.6z"/>
				<path id="t_264_" class="st3" d="M362.8,271.9c-0.6-0.2-0.8-0.3-1.4-0.5c0.3-0.1,0.4-0.1,0.7-0.2
					C362.3,271.5,362.5,271.6,362.8,271.9z"/>
				<path id="t_263_" class="st3" d="M362.8,271.9c-0.1-0.3-0.2-0.4-0.4-0.7c-0.4,0-0.6,0-1,0C362,271.5,362.2,271.7,362.8,271.9z"
					/>
				<path id="t_262_" class="st3" d="M363.7,271.2c-0.7,0.1-1,0.2-1.7,0.3c-0.2-0.1-0.3-0.2-0.5-0.3
					C362.4,271.2,362.9,271.2,363.7,271.2z"/>
				<path id="t_261_" class="st3" d="M363.7,271.2c-0.8,0-1.2-0.1-1.9-0.1c0,0.1-0.1,0.2-0.1,0.4
					C362.5,271.3,362.9,271.3,363.7,271.2z"/>
			</g>
			<g>
				<path id="t_260_" class="st3" d="M358.2,273.7c0.7-0.1,1-0.2,1.6-0.3c-0.2-0.1-0.3-0.2-0.4-0.3
					C358.9,273.4,358.7,273.5,358.2,273.7z"/>
				<path id="t_259_" class="st3" d="M358.2,273.7c0.3-0.2,0.5-0.4,0.8-0.6c0.3,0.1,0.5,0.1,0.8,0.2
					C359.2,273.5,358.9,273.5,358.2,273.7z"/>
				<path id="t_258_" class="st3" d="M357.8,272.8c0.5,0.3,0.8,0.4,1.4,0.6c0.3-0.1,0.4-0.1,0.6-0.2
					C359,273.1,358.6,273,357.8,272.8z"/>
				<path id="t_257_" class="st3" d="M357.8,272.8c0.7,0.1,1.1,0.1,1.9,0.2c0,0.1-0.1,0.2-0.1,0.3
					C358.9,273.2,358.5,273.1,357.8,272.8z"/>
				<path id="t_256_" class="st3" d="M359.8,272.5c-0.3,0.2-0.5,0.4-0.8,0.6c0.3,0.1,0.5,0.1,0.8,0.2
					C359.8,273,359.8,272.9,359.8,272.5z"/>
				<path id="t_255_" class="st3" d="M359.8,272.5c0.1,0.3,0.2,0.4,0.3,0.7c-0.4,0-0.6,0-0.9,0C359.4,273,359.5,272.8,359.8,272.5z"
					/>
				<path id="t_254_" class="st3" d="M360.4,273.9c-0.6-0.2-0.8-0.3-1.4-0.5c0.3-0.1,0.4-0.1,0.6-0.2
					C360,273.4,360.1,273.6,360.4,273.9z"/>
				<path id="t_253_" class="st3" d="M360.4,273.9c-0.1-0.3-0.2-0.4-0.4-0.7c-0.4,0-0.6,0-0.9,0
					C359.6,273.5,359.9,273.6,360.4,273.9z"/>
				<path id="t_252_" class="st3" d="M361.4,273.1c-0.7,0.1-1,0.2-1.7,0.3c-0.2-0.1-0.3-0.2-0.4-0.3
					C360.1,273.2,360.5,273.2,361.4,273.1z"/>
				<path id="t_251_" class="st3" d="M361.4,273.1c-0.8,0-1.2,0-1.9-0.1c0,0.1-0.1,0.2-0.1,0.3C360.2,273.3,360.6,273.2,361.4,273.1
					z"/>
			</g>
			<g>
				<path id="t_250_" class="st3" d="M353.6,274.8c0.7-0.1,1-0.2,1.6-0.3c-0.2-0.1-0.3-0.2-0.4-0.4
					C354.3,274.4,354,274.6,353.6,274.8z"/>
				<path id="t_249_" class="st3" d="M353.6,274.8c0.3-0.3,0.5-0.4,0.8-0.6c0.3,0.1,0.5,0.1,0.8,0.2
					C354.6,274.6,354.2,274.7,353.6,274.8z"/>
				<path id="t_248_" class="st3" d="M353.2,273.9c0.5,0.3,0.8,0.4,1.3,0.6c0.3-0.1,0.4-0.1,0.6-0.2
					C354.4,274.1,354,274.1,353.2,273.9z"/>
				<path id="t_247_" class="st3" d="M353.2,273.9c0.7,0.1,1.1,0.2,1.8,0.3c0,0.1-0.1,0.2-0.1,0.4
					C354.2,274.3,353.9,274.1,353.2,273.9z"/>
				<path id="t_246_" class="st3" d="M355.1,273.6c-0.3,0.3-0.5,0.4-0.8,0.6c0.3,0.1,0.5,0.1,0.8,0.2
					C355.1,274.1,355.1,274,355.1,273.6z"/>
				<path id="t_245_" class="st3" d="M355.1,273.6c0.1,0.3,0.2,0.5,0.3,0.8c-0.4,0-0.5,0-0.9,0C354.7,274.1,354.9,273.9,355.1,273.6
					z"/>
				<path id="t_244_" class="st3" d="M355.7,275.1c-0.5-0.2-0.8-0.3-1.3-0.6c0.3-0.1,0.4-0.1,0.6-0.2
					C355.3,274.6,355.5,274.7,355.7,275.1z"/>
				<path id="t_243_" class="st3" d="M355.7,275.1c-0.1-0.3-0.2-0.4-0.3-0.7c-0.4,0-0.5,0-0.9,0C355,274.6,355.2,274.8,355.7,275.1z
					"/>
				<path id="t_242_" class="st3" d="M356.7,274.3c-0.7,0.1-1,0.2-1.6,0.3c-0.2-0.1-0.3-0.2-0.4-0.4
					C355.4,274.3,355.8,274.3,356.7,274.3z"/>
				<path id="t_241_" class="st3" d="M356.7,274.3c-0.7-0.1-1.1-0.1-1.8-0.2c0,0.1-0.1,0.2-0.1,0.4
					C355.5,274.4,355.9,274.4,356.7,274.3z"/>
			</g>
		</g>
	</g>
</g>
<g>
	<g>
		<path class="st4" d="M432.5,249.4c7.9,2.3,12,3.1,21.7,0.8c-3.1,4.1-4.7,5.6-8.1,7.9c-6.5,4.3-10.2,4.9-17.7,5.1
			C430.2,258.6,431,255.8,432.5,249.4z"/>
		<path class="st5" d="M412.6,242.3c8.4,1.5,12,4.7,19.9,7.1c-1.5,6.4-2.3,9.2-4.1,13.8c-7.6,0.2-11.4-0.4-18.7,1.4
			C410.9,256.7,411.5,252.1,412.6,242.3z"/>
		<path class="st6" d="M391.6,244.4c8.4-2.8,12.6-3.6,21-2.1c-1.1,9.7-1.7,14.4-2.9,22.2c-7.3,1.8-10.9,3.4-18.1,5.6
			C391.6,261,391.6,255.5,391.6,244.4z"/>
	</g>
</g>
<g>
	<g>
		<path class="st5" d="M466.4,251.9c16.3-1.8,27.9,10.3,41.2,17.6c4,2.3,5.6,3,10.5,4.2c-17.7,10.5-32.6-1-51.7,4.7
			C466.4,267,466.4,262.3,466.4,251.9z"/>
		<path d="M485.7,255.7c8.7,4.9,12.8,8.6,21.8,13.8c0.4,0.3,0.7,0.4,1.1,0.6c-8.9-3.4-13.4-7.3-22.5-12
			C486,257.1,485.9,256.6,485.7,255.7z"/>
		<path d="M486.6,260.5c9.5,4.6,14.3,8.6,23.2,10.2c0.4,0.3,0.7,0.4,1.1,0.6c-8.8,0.2-13.9-3.9-23.8-8.4
			C486.9,262,486.8,261.5,486.6,260.5z"/>
		<path d="M466.4,263.4c17-4.6,29.1,10.9,45.6,8.7c0.4,0.3,0.6,0.4,1.1,0.5c-16.2,5.1-29.8-11.6-46.7-6.3
			C466.4,265.1,466.4,264.5,466.4,263.4z"/>
		<path d="M466.4,269.2c15.1-2.8,34,10.7,47.8,3.7c0.5,0.1,0.7,0.2,1.2,0.3c-12.7,9.1-34.4-4.2-49-1
			C466.4,271,466.4,270.4,466.4,269.2z"/>
		<path d="M466.4,275.3c14.4-3.8,38.5,9.2,50.3-1.9c0.5,0.1,0.8,0.1,1.3,0.3c-17.7,10.5-32.6-1-51.7,4.7
			C466.4,277.1,466.4,276.5,466.4,275.3z"/>
		<g>
			<g id="ermine_32_">
				<g transform="rotate(-90 300,167.5)">
					<path id="s_98_" d="M469.1,252.8c-0.2,0.1-0.3,0.2-0.5,0.3c-0.3-0.1-0.5-0.1-0.8-0.1c0.3-0.1,0.5-0.2,0.8-0.4
						C468.8,252.7,468.9,252.7,469.1,252.8z"/>
				</g>
				<path id="s_97_" d="M469.1,252.8c-0.1-0.1-0.2-0.2-0.3-0.3c0.1-0.3,0.2-0.4,0.3-0.6c0.1,0.2,0.2,0.4,0.3,0.6
					C469.3,252.5,469.2,252.6,469.1,252.8z"/>
				<g transform="rotate(90 300,167.5)">
					<path id="s_96_" d="M469.1,252.8c0.2-0.1,0.3-0.2,0.5-0.3c0.3,0.1,0.5,0.1,0.8,0.2c-0.3,0.1-0.5,0.2-0.8,0.3
						C469.4,252.9,469.3,252.9,469.1,252.8z"/>
				</g>
				<path d="M469.1,252.8c0.6,1,0.9,1.5,1.5,2.6c-0.4-0.1-0.7-0.2-1.1-0.3c-0.1,0.2-0.2,0.3-0.3,0.5c-0.1-0.2-0.2-0.3-0.3-0.4
					c-0.5,0.2-0.7,0.3-1.1,0.6C468.2,254.5,468.5,253.9,469.1,252.8z"/>
			</g>
			<g>
				<g id="ermine_31_">
					<g transform="rotate(-90 300,167.5)">
						<path id="s_95_" d="M474.2,252.8c-0.2,0.1-0.3,0.1-0.4,0.2c-0.3-0.1-0.5-0.2-0.8-0.3c0.3-0.1,0.4-0.1,0.7-0.2
							C474,252.7,474.1,252.7,474.2,252.8z"/>
					</g>
					<path id="s_94_" d="M474.2,252.8c-0.1-0.2-0.2-0.2-0.3-0.4c0.1-0.2,0.2-0.3,0.3-0.5c0.1,0.2,0.2,0.4,0.3,0.6
						C474.4,252.6,474.3,252.7,474.2,252.8z"/>
					<g transform="rotate(90 300,167.5)">
						<path id="s_93_" d="M474.2,252.8c0.2-0.1,0.3-0.1,0.4-0.2c0.3,0.1,0.5,0.2,0.7,0.3c-0.3,0-0.4,0.1-0.7,0.1
							C474.5,253,474.4,252.9,474.2,252.8z"/>
					</g>
					<path d="M474.2,252.8c0.6,1.1,0.9,1.6,1.5,2.7c-0.4-0.2-0.6-0.3-1.1-0.5c-0.1,0.2-0.2,0.3-0.3,0.4c-0.1-0.2-0.2-0.3-0.3-0.5
						c-0.4,0.1-0.6,0.2-1.1,0.3C473.5,254.3,473.7,253.8,474.2,252.8z"/>
				</g>
				<g>
					<g id="ermine_30_">
						<g transform="rotate(-90 300,167.5)">
							<path id="s_92_" d="M479.1,253.8c-0.2,0-0.2,0.1-0.4,0.1c-0.3-0.2-0.4-0.3-0.7-0.4c0.3,0,0.4,0,0.7,0
								C478.8,253.6,478.9,253.7,479.1,253.8z"/>
						</g>
						<path id="s_91_" d="M479.1,253.8c-0.1-0.2-0.2-0.3-0.3-0.4c0.1-0.2,0.1-0.3,0.2-0.5c0.1,0.3,0.2,0.4,0.3,0.7
							C479.2,253.7,479.2,253.7,479.1,253.8z"/>
						<g transform="rotate(90 300,167.5)">
							<path id="s_90_" d="M479.1,253.8c0.2,0,0.2-0.1,0.4-0.1c0.3,0.2,0.4,0.3,0.7,0.5c-0.3,0-0.4,0-0.7,0
								C479.3,254,479.2,254,479.1,253.8z"/>
						</g>
						<path d="M479.1,253.8c0.6,1.1,0.9,1.7,1.5,2.9c-0.4-0.3-0.6-0.4-1-0.7c-0.1,0.1-0.1,0.2-0.2,0.4c-0.1-0.2-0.2-0.3-0.3-0.5
							c-0.4,0-0.6,0-1,0.1C478.4,255.1,478.6,254.7,479.1,253.8z"/>
					</g>
					<g>
						<g id="ermine_29_">
							<g transform="rotate(-90 300,167.5)">
								<path id="s_89_" d="M483.7,255.6c-0.1,0-0.2,0-0.4,0c-0.3-0.2-0.4-0.3-0.7-0.5c0.3,0,0.4,0,0.6,0.1
									C483.4,255.4,483.5,255.5,483.7,255.6z"/>
							</g>
							<path id="s_88_" d="M483.7,255.6c-0.1-0.2-0.2-0.3-0.3-0.5c0.1-0.2,0.1-0.3,0.2-0.4c0.1,0.3,0.2,0.4,0.3,0.7
								C483.8,255.5,483.8,255.5,483.7,255.6z"/>
							<g transform="rotate(90 300,167.5)">
								<path id="s_87_" d="M483.7,255.6c0.1,0,0.2,0,0.4,0c0.3,0.2,0.4,0.3,0.7,0.6c-0.3,0-0.4-0.1-0.6-0.1
									C483.9,255.9,483.8,255.8,483.7,255.6z"/>
							</g>
							<path d="M483.7,255.6c0.6,1.2,1,1.8,1.6,3c-0.4-0.3-0.6-0.5-1-0.8c-0.1,0.1-0.1,0.2-0.2,0.3c-0.1-0.2-0.2-0.3-0.3-0.6
								c-0.4,0-0.6-0.1-0.9-0.1C483.1,256.7,483.3,256.4,483.7,255.6z"/>
						</g>
						<g>
							<g id="ermine_28_">
								<g transform="rotate(-90 300,167.5)">
									<path id="s_86_" d="M471.8,255.9c-0.2,0.1-0.3,0.2-0.5,0.3c-0.3-0.1-0.5-0.1-0.8-0.2c0.3-0.1,0.5-0.2,0.8-0.3
										C471.5,255.8,471.6,255.8,471.8,255.9z"/>
								</g>
								<path id="s_85_" d="M471.8,255.9c-0.1-0.1-0.2-0.2-0.3-0.3c0.1-0.2,0.2-0.4,0.3-0.6c0.1,0.2,0.2,0.4,0.3,0.6
									C472,255.7,471.9,255.8,471.8,255.9z"/>
								<g transform="rotate(90 300,167.5)">
									<path id="s_84_" d="M471.8,255.9c0.2-0.1,0.3-0.1,0.5-0.2c0.3,0.1,0.5,0.1,0.8,0.2c-0.3,0.1-0.5,0.1-0.8,0.2
										C472.1,256,472,256,471.8,255.9z"/>
								</g>
								<path d="M471.8,255.9c0.6,1,0.9,1.5,1.5,2.6c-0.4-0.1-0.7-0.2-1.1-0.3c-0.1,0.2-0.2,0.3-0.3,0.5c-0.1-0.2-0.2-0.3-0.3-0.5
									c-0.4,0.2-0.7,0.3-1.1,0.5C471,257.5,471.3,257,471.8,255.9z"/>
							</g>
							<g id="ermine_27_">
								<g transform="rotate(-90 300,167.5)">
									<path id="s_83_" d="M476.9,256.3c-0.2,0.1-0.3,0.1-0.4,0.1c-0.3-0.1-0.5-0.2-0.8-0.3c0.3-0.1,0.4-0.1,0.7-0.1
										C476.6,256.1,476.7,256.2,476.9,256.3z"/>
								</g>
								<path id="s_82_" d="M476.9,256.3c-0.1-0.2-0.2-0.2-0.3-0.4c0.1-0.2,0.2-0.3,0.3-0.5c0.1,0.2,0.2,0.4,0.3,0.6
									C477.1,256.1,477,256.2,476.9,256.3z"/>
								<g transform="rotate(90 300,167.5)">
									<path id="s_81_" d="M476.9,256.3c0.2-0.1,0.3-0.1,0.4-0.1c0.3,0.2,0.5,0.2,0.8,0.4c-0.3,0-0.4,0-0.7,0.1
										C477.2,256.5,477.1,256.4,476.9,256.3z"/>
								</g>
								<path d="M476.9,256.3c0.6,1.1,0.9,1.6,1.5,2.8c-0.4-0.2-0.6-0.3-1.1-0.6c-0.1,0.2-0.2,0.2-0.3,0.4c-0.1-0.2-0.2-0.3-0.3-0.5
									c-0.4,0.1-0.6,0.1-1.1,0.2C476.2,257.7,476.4,257.2,476.9,256.3z"/>
							</g>
							<g>
								<g id="ermine_26_">
									<g transform="rotate(-90 300,167.5)">
										<path id="s_80_" d="M481.7,257.7c-0.2,0-0.2,0-0.4,0.1c-0.3-0.2-0.4-0.3-0.7-0.5c0.3,0,0.4,0,0.7,0
											C481.5,257.4,481.6,257.5,481.7,257.7z"/>
									</g>
									<path id="s_79_" d="M481.7,257.7c-0.1-0.2-0.2-0.3-0.3-0.4c0.1-0.2,0.1-0.3,0.2-0.5c0.1,0.3,0.2,0.4,0.3,0.7
										C481.9,257.5,481.8,257.6,481.7,257.7z"/>
									<g transform="rotate(90 300,167.5)">
										<path id="s_78_" d="M481.7,257.7c0.2,0,0.2,0,0.4-0.1c0.3,0.2,0.4,0.3,0.7,0.5c-0.3,0-0.4,0-0.7-0.1
											C482,257.9,481.9,257.8,481.7,257.7z"/>
									</g>
									<path d="M481.7,257.7c0.6,1.2,0.9,1.8,1.6,2.9c-0.4-0.3-0.6-0.4-1.1-0.7c-0.1,0.1-0.1,0.2-0.2,0.3
										c-0.1-0.2-0.2-0.3-0.3-0.5c-0.4,0-0.6,0-1,0C481.1,258.9,481.3,258.5,481.7,257.7z"/>
								</g>
								<g>
									<g id="ermine_25_">
										<g transform="rotate(-90 300,167.5)">
											<path id="s_77_" d="M469.2,259.5c-0.2,0.1-0.3,0.2-0.5,0.4c-0.3,0-0.5,0-0.8-0.1c0.3-0.2,0.5-0.3,0.8-0.4
												C468.9,259.4,469,259.4,469.2,259.5z"/>
										</g>
										<path id="s_76_" d="M469.2,259.5c-0.1-0.1-0.2-0.2-0.3-0.3c0.1-0.3,0.2-0.4,0.3-0.7c0.1,0.2,0.2,0.3,0.3,0.6
											C469.4,259.2,469.3,259.3,469.2,259.5z"/>
										<g transform="rotate(90 300,167.5)">
											<path id="s_75_" d="M469.2,259.5c0.2-0.1,0.3-0.2,0.5-0.3c0.3,0,0.5,0.1,0.8,0.1c-0.3,0.1-0.5,0.2-0.8,0.4
												C469.5,259.6,469.4,259.5,469.2,259.5z"/>
										</g>
										<path d="M469.2,259.5c0.6,1,0.9,1.5,1.5,2.4c-0.5-0.1-0.7-0.1-1.2-0.2c-0.1,0.2-0.2,0.3-0.3,0.6c-0.1-0.2-0.2-0.3-0.3-0.4
											c-0.5,0.3-0.7,0.4-1.2,0.7C468.3,261.3,468.6,260.7,469.2,259.5z"/>
									</g>
									<g>
										<g id="ermine_24_">
											<g transform="rotate(-90 300,167.5)">
												<path id="s_74_" d="M474.5,259.1c-0.2,0.1-0.3,0.1-0.5,0.2c-0.3-0.1-0.5-0.2-0.8-0.2c0.3-0.1,0.5-0.1,0.8-0.2
													C474.2,259,474.3,259,474.5,259.1z"/>
											</g>
											<path id="s_73_" d="M474.5,259.1c-0.1-0.1-0.2-0.2-0.3-0.4c0.1-0.2,0.2-0.3,0.3-0.6c0.1,0.2,0.2,0.4,0.3,0.6
												C474.7,258.9,474.6,259,474.5,259.1z"/>
											<g transform="rotate(90 300,167.5)">
												<path id="s_72_" d="M474.5,259.1c0.2-0.1,0.3-0.1,0.5-0.2c0.3,0.1,0.5,0.2,0.8,0.3c-0.3,0.1-0.5,0.1-0.8,0.2
													C474.8,259.3,474.7,259.2,474.5,259.1z"/>
											</g>
											<path d="M474.5,259.1c0.6,1,0.9,1.6,1.5,2.6c-0.4-0.2-0.7-0.3-1.1-0.4c-0.1,0.2-0.2,0.3-0.3,0.5
												c-0.1-0.2-0.2-0.3-0.3-0.5c-0.4,0.1-0.7,0.2-1.1,0.4C473.7,260.6,474,260.1,474.5,259.1z"/>
										</g>
										<g>
											<g id="ermine_23_">
												<g transform="rotate(-90 300,167.5)">
													<path id="s_71_" d="M479.6,259.9c-0.2,0-0.3,0.1-0.4,0.1c-0.3-0.2-0.5-0.2-0.8-0.4c0.3,0,0.4,0,0.7-0.1
														C479.3,259.7,479.4,259.8,479.6,259.9z"/>
												</g>
												<path id="s_70_" d="M479.6,259.9c-0.1-0.2-0.2-0.2-0.3-0.4c0.1-0.2,0.2-0.3,0.2-0.5c0.1,0.3,0.2,0.4,0.3,0.6
													C479.8,259.8,479.7,259.8,479.6,259.9z"/>
												<g transform="rotate(90 300,167.5)">
													<path id="s_69_" d="M479.6,259.9c0.2,0,0.3-0.1,0.4-0.1c0.3,0.2,0.5,0.3,0.8,0.4c-0.3,0-0.4,0-0.7,0
														C479.9,260.1,479.8,260.1,479.6,259.9z"/>
												</g>
												<path d="M479.6,259.9c0.6,1.1,0.9,1.7,1.6,2.9c-0.4-0.3-0.7-0.4-1.1-0.6c-0.1,0.1-0.2,0.2-0.3,0.4
													c-0.1-0.2-0.2-0.3-0.3-0.5c-0.4,0-0.6,0.1-1.1,0.1C478.9,261.2,479.2,260.8,479.6,259.9z"/>
											</g>
											<g>
												<g id="ermine_22_">
													<g transform="rotate(-90 300,167.5)">
														<path id="s_68_" d="M484.5,261.7c-0.2,0-0.2,0-0.4,0c-0.3-0.2-0.5-0.3-0.8-0.5c0.3,0,0.4,0,0.7,0.1
															C484.3,261.4,484.4,261.5,484.5,261.7z"/>
													</g>
													<path id="s_67_" d="M484.5,261.7c-0.1-0.2-0.2-0.3-0.3-0.5c0.1-0.2,0.1-0.3,0.2-0.4c0.1,0.3,0.2,0.4,0.4,0.7
														C484.7,261.5,484.6,261.6,484.5,261.7z"/>
													<g transform="rotate(90 300,167.5)">
														<path id="s_66_" d="M484.5,261.7c0.2,0,0.2,0,0.4,0c0.3,0.2,0.5,0.3,0.8,0.5c-0.3,0-0.4-0.1-0.7-0.1
															C484.8,261.9,484.7,261.8,484.5,261.7z"/>
													</g>
													<path d="M484.5,261.7c0.7,1.2,1,1.8,1.7,3c-0.5-0.3-0.7-0.5-1.1-0.8c-0.1,0.1-0.1,0.2-0.2,0.3
														c-0.1-0.2-0.2-0.3-0.4-0.6c-0.4,0-0.6-0.1-1-0.1C484,262.8,484.2,262.4,484.5,261.7z"/>
												</g>
											</g>
										</g>
									</g>
								</g>
							</g>
						</g>
					</g>
				</g>
			</g>
		</g>
	</g>
</g>
</svg>
