<?xml version="1.0" encoding="iso-8859-1"?>
<!-- Generator: Adobe Illustrator 21.0.0, SVG Export Plug-In . SVG Version: 6.00 Build 0)  -->
<svg xmlns="http://www.w3.org/2000/svg" xmlns:xlink="http://www.w3.org/1999/xlink" version="1.1" id="Capa_1" x="0px" y="0px" viewBox="0 0 512.015 512.015" style="enable-background:new 0 0 512.015 512.015;" xml:space="preserve" width="512" height="512">
<g>
	<path d="M358.504,510.007c7.178-4.146,9.639-13.315,5.493-20.493l-184.268-296.16l56.184-32.437   c14.37-8.276,19.281-26.653,10.986-40.972l-61-104.931c-8.253-14.33-26.603-19.288-40.986-10.972l-129.902,75   C0.586,87.35-4.223,105.752,4.039,120.015l61,104.931c8.236,14.299,26.559,19.305,40.972,10.972l47.734-27.559l184.266,296.156   C342.167,511.71,351.365,514.13,358.504,510.007z M164.429,75.883l-21.958,81.958c-1.787,6.694-7.852,11.118-14.473,11.118   c-1.289,0-2.593-0.161-3.896-0.513l-40.986-10.972c-7.998-2.139-12.744-10.356-10.605-18.369   c2.153-7.998,10.386-12.759,18.369-10.605l26.499,7.09l18.076-67.471c2.139-7.983,10.444-12.686,18.369-10.605   C161.821,59.652,166.568,67.885,164.429,75.883z"/>
	<path d="M446.977,224.945l61-104.931c8.243-14.233,3.483-32.648-10.972-40.972l-129.902-75c-14.474-8.37-32.78-3.278-40.986,10.972   l-52.839,90.793c7.606,13.629,9.662,29.434,5.614,44.621c-0.912,3.397-2.212,6.606-3.657,9.73c0.331,0.209,0.526,0.562,0.868,0.758   l56.188,32.441l-58.654,94.924l17.628,28.526l67.011-108.448l47.73,27.557C420.407,244.245,438.736,239.255,446.977,224.945z    M430.913,123.988l-26.492,7.097l7.097,26.492c2.139,7.998-2.607,16.23-10.605,18.369c-7.923,2.137-16.221-2.542-18.369-10.605   l-7.097-26.492l-26.492,7.097c-7.923,2.137-16.221-2.542-18.369-10.605c-2.139-7.998,2.607-16.23,10.605-18.369l26.492-7.097   l-7.097-26.492c-2.139-7.998,2.607-16.23,10.605-18.369c8.013-2.139,16.245,2.593,18.369,10.605l7.097,26.492l26.492-7.097   c8.013-2.124,16.245,2.593,18.369,10.605C443.657,113.617,438.911,121.85,430.913,123.988z"/>
	<path d="M220.758,373.859l-72.733,115.656c-4.146,7.178-1.685,16.348,5.493,20.493c7.099,4.1,16.302,1.743,20.493-5.493   l64.374-102.13L220.758,373.859z"/>
</g>















</svg>
